<?xml version="1.0" encoding="UTF-8"?>
<!DOCTYPE svg PUBLIC "-//W3C//DTD SVG 1.1//EN" "http://www.w3.org/Graphics/SVG/1.1/DTD/svg11.dtd">
<!-- Creator: CorelDRAW -->
<svg xmlns="http://www.w3.org/2000/svg" xml:space="preserve" width="1.99999in" height="1.99999in" version="1.1" style="shape-rendering:geometricPrecision; text-rendering:geometricPrecision; image-rendering:optimizeQuality; fill-rule:evenodd; clip-rule:evenodd"
viewBox="0 0 2000 2000"
 xmlns:xlink="http://www.w3.org/1999/xlink">
 <defs>
  <style type="text/css">
   <![CDATA[
    .fil1 {fill:#043659}
    .fil0 {fill:#249ECF}
   ]]>
  </style>
 </defs>
 <g id="Layer_x0020_1">
  <metadata id="CorelCorpID_0Corel-Layer"/>
  <g id="_531543440">
   <g>
    <path class="fil0" d="M1624 1810l-1248 0c-14,0 -26,-12 -26,-26l0 -837c0,-8 3,-15 9,-20l624 -533c10,-8 24,-8 34,0l624 533c6,5 9,12 9,20l0 837c0,14 -12,26 -26,26zm-1222 -52l1196 0 0 -799 -598 -511 -598 511 0 799z"/>
   </g>
   <g>
    <path class="fil0" d="M1000 1810c-14,0 -26,-12 -26,-26l0 -443 -168 0 0 443c0,14 -12,26 -26,26 -14,0 -26,-12 -26,-26l0 -469c0,-14 12,-26 26,-26l220 0c14,0 26,12 26,26l0 469c0,14 -12,26 -26,26z"/>
   </g>
   <g>
    <path class="fil0" d="M1220 1810c-14,0 -26,-12 -26,-26l0 -443 -194 0c-14,0 -26,-12 -26,-26 0,-14 12,-26 26,-26l220 0c14,0 26,12 26,26l0 469c0,14 -12,26 -26,26z"/>
   </g>
   <g>
    <g>
     <path class="fil1" d="M1506 1722l-168 0c-14,0 -26,-12 -26,-26l0 -293c0,-15 12,-26 26,-26l168 0c14,0 26,11 26,26l0 293c0,14 -12,26 -26,26zm-142 -52l116 0 0 -241 -116 0 0 241z"/>
    </g>
    <g>
     <path class="fil1" d="M1506 1575l-168 0c-14,0 -26,-11 -26,-26 0,-14 12,-25 26,-25l168 0c14,0 26,11 26,25 0,15 -12,26 -26,26z"/>
    </g>
   </g>
   <g>
    <g>
     <path class="fil1" d="M662 1722l-168 0c-14,0 -26,-12 -26,-26l0 -293c0,-15 12,-26 26,-26l168 0c14,0 26,11 26,26l0 293c0,14 -12,26 -26,26zm-142 -52l116 0 0 -241 -116 0 0 241z"/>
    </g>
    <g>
     <path class="fil1" d="M662 1575l-168 0c-14,0 -26,-11 -26,-26 0,-14 12,-25 26,-25l168 0c14,0 26,11 26,25 0,15 -12,26 -26,26z"/>
    </g>
   </g>
   <g>
    <path class="fil1" d="M1827 949c-6,0 -11,-2 -16,-7l-811 -692 -811 692c-10,10 -27,8 -36,-2 -9,-11 -8,-28 3,-37l827 -706c10,-9 24,-9 34,0l827 706c11,9 12,26 3,37 -5,6 -12,9 -20,9z"/>
   </g>
   <g>
    <path class="fil1" d="M1614 766c-14,0 -26,-11 -26,-26l0 -292 -60 0 0 197c0,14 -12,26 -26,26 -14,0 -26,-12 -26,-26l0 -223c0,-15 12,-26 26,-26l112 0c14,0 26,11 26,26l0 318c0,15 -12,26 -26,26z"/>
   </g>
   <g>
    <g>
     <path class="fil1" d="M1000 1223c-168,0 -304,-136 -304,-304 0,-167 136,-304 304,-304 168,0 304,137 304,304 0,168 -136,304 -304,304zm0 -556c-139,0 -252,113 -252,252 0,140 113,253 252,253 139,0 252,-113 252,-253 0,-139 -113,-252 -252,-252z"/>
    </g>
    <g>
     <g>
      <path class="fil1" d="M1000 1074c-50,0 -90,-41 -90,-90 0,-15 11,-26 26,-26 14,0 26,11 26,26 0,21 17,38 38,38 21,0 38,-17 38,-38 0,-28 -10,-31 -44,-39 -31,-8 -84,-21 -84,-90 0,-50 40,-90 90,-90 50,0 90,40 90,90 0,14 -11,26 -26,26 -14,0 -26,-12 -26,-26 0,-21 -17,-38 -38,-38 -21,0 -38,17 -38,38 0,27 10,31 44,39 31,8 84,20 84,90 0,49 -40,90 -90,90z"/>
     </g>
     <g>
      <path class="fil1" d="M1000 817c-14,0 -26,-12 -26,-26l0 -51c0,-14 12,-26 26,-26 14,0 26,12 26,26l0 51c0,14 -12,26 -26,26z"/>
     </g>
     <g>
      <path class="fil1" d="M1000 1125c-14,0 -26,-12 -26,-26l0 -51c0,-14 12,-26 26,-26 14,0 26,12 26,26l0 51c0,14 -12,26 -26,26z"/>
     </g>
    </g>
   </g>
  </g>
 </g>
</svg>
